<svg xmlns="http://www.w3.org/2000/svg" viewBox="0 0 600 600" fill="none">
  <g stroke="#c9a24b" stroke-width="2.4" opacity="0.95">
    <!-- petals, layered -->
    <g transform="translate(300,260)">
      <circle r="18" fill="#c9a24b" opacity="0.2"/>
      <path d="M0,-30 C28,-30 40,-12 40,0 C40,20 20,40 0,40 C-20,40 -40,20 -40,0 C-40,-12 -28,-30 0,-30 Z" opacity="0.9"/>
      <path d="M0,-58 C44,-58 64,-22 64,4 C64,40 32,72 0,72 C-32,72 -64,40 -64,4 C-64,-22 -44,-58 0,-58 Z" opacity="0.75" transform="rotate(18)"/>
      <path d="M0,-90 C66,-90 96,-34 96,6 C96,60 48,108 0,108 C-48,108 -96,60 -96,6 C-96,-34 -66,-90 0,-90 Z" opacity="0.6" transform="rotate(36)"/>
      <path d="M0,-122 C88,-122 128,-46 128,8 C128,80 64,144 0,144 C-64,144 -128,80 -128,8 C-128,-46 -88,-122 0,-122 Z" opacity="0.45" transform="rotate(54)"/>
      <path d="M0,-154 C110,-154 160,-58 160,10 C160,100 80,180 0,180 C-80,180 -160,100 -160,10 C-160,-58 -110,-154 0,-154 Z" opacity="0.3" transform="rotate(72)"/>
    </g>
    <!-- stem -->
    <path d="M300,440 C290,500 270,540 300,600" stroke-width="3"/>
    <!-- leaves -->
    <path d="M298,470 C240,455 215,415 196,425 C214,470 258,492 298,492" fill="#c9a24b" fill-opacity="0.12"/>
    <path d="M300,510 C360,495 388,455 408,468 C388,512 344,532 302,532" fill="#c9a24b" fill-opacity="0.12"/>
    <!-- thorns -->
    <path d="M292,455 l-12,-8 M306,500 l14,-8 M290,545 l-14,-7"/>
  </g>
</svg>
